HIERARCHY
ROOT Hips
{
	OFFSET -3.958830 18.904000 13.208200
	CHANNELS 6 Xposition Yposition Zposition Zrotation Yrotation Xrotation 
	JOINT LHipJoint
	{
		OFFSET 0.000000 0.000000 0.000000
		CHANNELS 3 Zrotation Yrotation Xrotation
		JOINT LeftUpLeg
		{
			OFFSET 1.800000 -1.400000 0.085000
			CHANNELS 3 Zrotation Yrotation Xrotation
			JOINT LeftLeg
			{
				OFFSET 2.215000 -6.000000 0.000000
				CHANNELS 3 Zrotation Yrotation Xrotation
				JOINT LeftFoot
				{
					OFFSET 2.500000 -6.900000 0.000000
					CHANNELS 3 Zrotation Yrotation Xrotation
					JOINT LeftToeBase
					{
						OFFSET 0.200000 -0.500000 1.950000
						CHANNELS 3 Zrotation Yrotation Xrotation
						End Site
						{
							OFFSET 0.000000 0.000000 0.000000
						}
					}
				}
			}
		}
	}
	JOINT RHipJoint
	{
		OFFSET 0.000000 0.000000 0.000000
		CHANNELS 3 Zrotation Yrotation Xrotation
		JOINT RightUpLeg
		{
			OFFSET -1.800000 -1.400000 0.085000
			CHANNELS 3 Zrotation Yrotation Xrotation
			JOINT RightLeg
			{
				OFFSET -2.215000 -6.000000 0.000000
				CHANNELS 3 Zrotation Yrotation Xrotation
				JOINT RightFoot
				{
					OFFSET -2.500000 -6.900000 0.000000
					CHANNELS 3 Zrotation Yrotation Xrotation
					JOINT RightToeBase
					{
						OFFSET -0.200000 -0.500000 1.950000
						CHANNELS 3 Zrotation Yrotation Xrotation
						End Site
						{
							OFFSET 0.000000 0.000000 0.000000
						}
					}
				}
			}
		}
	}
	JOINT LowerBack
	{
		OFFSET 0.000000 0.000000 0.000000
		CHANNELS 3 Zrotation Yrotation Xrotation
		JOINT Spine
		{
			OFFSET -0.087000 1.940000 -0.288900
			CHANNELS 3 Zrotation Yrotation Xrotation
			JOINT Spine1
			{
				OFFSET 0.000000 1.950000 0.060000
				CHANNELS 3 Zrotation Yrotation Xrotation
				JOINT Neck
				{
					OFFSET 0.000000 0.000000 0.000000
					CHANNELS 3 Zrotation Yrotation Xrotation
					JOINT Neck1
					{
						OFFSET 0.000000 1.600000 0.340000
						CHANNELS 3 Zrotation Yrotation Xrotation
						JOINT Head
						{
							OFFSET 0.000000 1.667000 -0.240000
							CHANNELS 3 Zrotation Yrotation Xrotation
							End Site
							{
								OFFSET 0.000000 0.000000 0.000000
							}
						}
					}
				}
				JOINT LeftShoulder
				{
					OFFSET 0.000000 0.000000 0.000000
					CHANNELS 3 Zrotation Yrotation Xrotation
					JOINT LeftArm
					{
						OFFSET 2.700000 1.550000 -0.730000
						CHANNELS 3 Zrotation Yrotation Xrotation
						JOINT LeftForeArm
						{
							OFFSET 5.450000 0.000000 0.000000
							CHANNELS 3 Zrotation Yrotation Xrotation
							JOINT LeftHand
							{
								OFFSET 3.450000 0.000000 0.000000
								CHANNELS 3 Zrotation Yrotation Xrotation
								JOINT LeftHandIndex1
								{
									OFFSET 0.750000 0.000000 0.000000
									CHANNELS 3 Zrotation Yrotation Xrotation
									End Site
									{
										OFFSET 0.000000 0.000000 0.000000
									}
								}
							}
						}
					}
				}
				JOINT RightShoulder
				{
					OFFSET 0.000000 0.000000 0.000000
					CHANNELS 3 Zrotation Yrotation Xrotation
					JOINT RightArm
					{
						OFFSET -2.700000 1.550000 -0.730000
						CHANNELS 3 Zrotation Yrotation Xrotation
						JOINT RightForeArm
						{
							OFFSET -5.450000 0.000000 0.000000
							CHANNELS 3 Zrotation Yrotation Xrotation
							JOINT RightHand
							{
								OFFSET -3.450000 0.000000 0.000000
								CHANNELS 3 Zrotation Yrotation Xrotation
								JOINT RightHandIndex1
								{
									OFFSET -0.750000 0.000000 0.000000
									CHANNELS 3 Zrotation Yrotation Xrotation
									End Site
									{
										OFFSET 0.000000 0.000000 0.000000
									}
								}
							}
						}
					}
				}
			}
		}
	}
}
MOTION
Frames: 7
Frame Time: 0.016667
-0.521260 16.458950 -3.029330 -0.842928 -10.529895 -3.465047 -14.947011 14.248870 3.204987 -0.077308 -3.157625 -16.571404 2.641598 3.695424 21.003703 -1.333584 4.475393 3.060351 -0.285030 -0.898310 -0.124500 18.191284 -11.314071 2.518424 -9.649992 0.913031 -12.294270 5.885322 -6.611820 21.088364 0.064246 -3.941044 2.970248 -0.063700 0.674310 0.023270 -3.525211 -3.203404 -7.479216 6.245652 3.656189 13.071678 2.077124 6.917106 6.515854 -6.313504 -9.444431 -16.199739 -24.018717 13.846468 31.214252 8.853160 4.365910 -7.021350 -21.130629 -23.709601 3.856070 -23.127422 -23.048340 -10.286338 98.589575 -5.964086 -20.044732 -4.251202 2.681887 0.862510 0.214460 -0.422840 -0.118090 35.748058 25.737520 15.655825 44.865705 -12.205565 -4.864610 3.870483 -0.157538 0.297336 1.960948 -0.713680 -0.928230 0.609330 0.731750 -0.458190 
-0.529400 16.433690 -3.075420 -1.170795 -10.134441 -3.613825 -14.957515 14.286739 3.222729 0.443553 -3.073869 -17.280457 2.478801 3.743067 20.714433 -1.321484 4.396140 3.090214 -0.276110 -0.884630 -0.096430 18.164416 -11.320264 2.564276 -8.512497 1.217337 -12.614953 5.162827 -6.430752 22.034562 0.047640 -3.899439 2.991305 -0.074610 0.647060 0.017350 -3.467847 -3.210277 -7.568351 6.278819 2.801382 13.971525 1.717670 5.990782 6.155998 -5.280419 -9.594214 -16.651187 -23.964564 14.519720 31.865862 8.291420 5.445840 -7.517380 -24.296352 -24.371122 4.336408 -24.344159 -20.650790 -10.824781 108.225036 -5.920656 -23.181931 -4.214977 2.690633 0.874720 0.199320 -0.400120 -0.122880 36.987944 26.723547 15.643874 41.605307 -9.358172 -4.081549 -1.554627 0.940176 0.557271 1.995750 -0.765825 -0.916680 0.603320 0.710570 -0.467940 
-0.536510 16.416080 -3.140190 -1.364580 -9.837596 -3.998537 -14.963267 14.328376 3.252769 0.674505 -3.042573 -18.044894 2.823411 3.689136 20.985576 -1.296578 4.325115 3.098215 -0.266400 -0.868900 -0.058000 18.136302 -11.331157 2.621403 -7.691283 1.626347 -13.276642 4.651642 -6.389420 23.510445 0.014090 -3.907041 2.984045 -0.096050 0.587230 0.019780 -3.415807 -3.198929 -7.687879 6.230416 2.016334 15.344922 1.062911 5.120924 5.615679 -4.152788 -9.388594 -17.193780 -23.531812 15.227312 33.777673 7.541690 6.932830 -8.392670 -26.893899 -25.191007 5.085174 -25.596362 -17.930543 -11.769690 116.501896 -5.583688 -26.830033 -4.167024 2.704239 0.905820 0.168500 -0.352350 -0.140930 37.405081 27.829461 15.485593 39.854525 -5.746398 -4.594487 -7.491148 2.931254 0.381620 2.037223 -0.838298 -0.891840 0.575020 0.686600 -0.487400 
-0.541390 16.401230 -3.201390 -1.357198 -9.041363 -4.447910 -14.986657 14.361734 3.290373 0.397979 -3.068388 -18.729519 3.645292 3.478722 21.276788 -1.275866 4.230694 3.114838 -0.257990 -0.853950 -0.014170 18.098727 -11.317568 2.659990 -7.475708 1.983356 -13.826954 4.694614 -6.561229 24.946415 -0.025205 -3.982624 2.951620 -0.116810 0.523220 0.021040 -3.345238 -3.225939 -7.793313 5.825449 1.240340 16.583422 0.298175 4.166439 5.098608 -3.044166 -8.899573 -17.385584 -22.464015 15.523288 35.984386 6.525650 8.339720 -9.550980 -29.109428 -25.643874 5.851116 -27.139201 -15.438918 -12.658778 123.128642 -5.735901 -31.742950 -4.120129 2.691976 0.938100 0.138450 -0.303620 -0.165490 37.324696 28.519666 15.134197 38.970373 -1.850319 -6.180417 -13.390743 6.462043 -0.441217 2.048070 -0.919205 -0.868430 0.546670 0.662340 -0.509960 
-0.546290 16.386670 -3.255200 -1.119659 -8.483820 -4.880954 -15.013610 14.360614 3.320966 -0.160084 -3.107589 -19.265403 4.592046 3.254730 21.726116 -1.257907 4.161531 3.128662 -0.245320 -0.833360 0.024980 18.067426 -11.297873 2.688044 -7.753106 2.372301 -14.503595 5.154534 -6.892290 26.461236 -0.068866 -4.120540 2.902114 -0.129070 0.469200 0.012510 -3.282584 -3.193847 -7.871360 5.203589 0.773719 17.336213 -0.600645 3.522869 5.166661 -1.935177 -8.243609 -17.484205 -20.950451 15.537920 38.229944 5.537110 9.571010 -10.672320 -30.453422 -26.039639 6.879626 -29.872672 -13.176035 -13.651150 128.484744 -6.464531 -39.162677 -4.065498 2.644552 0.969380 0.111450 -0.263310 -0.180720 36.283503 29.411545 14.642436 39.491895 2.278123 -7.964104 -19.524132 9.324242 -1.664735 2.047862 -0.985590 -0.853900 0.533540 0.637090 -0.531670 
-0.552170 16.380970 -3.300870 -0.811781 -7.926635 -5.527988 -15.028075 14.343895 3.339086 -0.891431 -3.078047 -19.362056 5.677867 2.965426 21.821874 -1.230279 4.047644 3.157846 -0.221340 -0.790190 0.058710 18.045750 -11.294686 2.726888 -8.473870 2.784821 -15.054134 6.080080 -7.430243 28.101665 -0.134568 -4.343048 2.820573 -0.134940 0.404550 0.002290 -3.254867 -3.098580 -7.944847 4.845533 0.500819 18.234884 -1.602802 3.154976 5.211826 -0.836473 -7.786531 -17.546643 -20.026931 15.305072 40.715540 4.543490 10.250420 -12.116580 -32.009460 -26.006870 7.899748 -32.857952 -11.073658 -14.296162 132.510371 -8.461356 -49.277807 -4.006838 2.560907 0.997180 0.072750 -0.213820 -0.191860 35.464691 30.139739 14.251663 40.413799 5.776938 -10.303662 -27.231200 13.269769 -3.775447 2.029552 -1.045834 -0.824170 0.520710 0.606640 -0.543200 
-0.564290 16.373430 -3.334100 -0.248081 -6.958548 -5.956594 -15.063231 14.284886 3.358721 -1.879357 -3.111349 -19.432710 6.732469 2.666341 21.786207 -1.202265 3.953652 3.194553 -0.201410 -0.754330 0.061400 18.018268 -11.258095 2.756748 -9.663550 3.137817 -15.626609 7.518416 -8.136333 29.375106 -0.188723 -4.623124 2.724970 -0.134100 0.382860 -0.002020 -3.205030 -3.008068 -7.990778 4.120610 0.477679 18.628208 -2.285492 2.986638 5.446491 0.001325 -7.526948 -17.229049 -19.228149 14.678549 41.873578 4.184880 9.899840 -12.741030 -33.211745 -25.389421 8.809646 -36.301548 -9.799884 -14.267252 135.364465 -11.436777 -60.981297 -3.983535 2.471190 0.997890 0.057030 -0.194150 -0.182490 34.835417 30.352686 13.811495 41.352807 8.305302 -12.851232 -35.789811 19.382092 -7.324596 1.974699 -1.080229 -0.798350 0.518330 0.584580 -0.533560 
